<svg xmlns="http://www.w3.org/2000/svg" id="f76f5a20-851f-4140-90c5-166bd5644ece" data-name="Layer 1" width="78" height="23.7964" viewBox="0 0 78 23.7964"><path d="M67.9209,11.7153C64.1768,5.7778,60.6416.1694,56.7227.1694c-4.2149,0-4.2149,6.0489-4.2149,11.8985,0,5.2,0,10.5757-2.8935,10.5757-3.19,0-6.6924-5.5557-10.0791-10.9283C35.792,5.7778,32.2563.1694,28.3374.1694a3.1318,3.1318,0,0,0-2.2964.9248C24.1548,2.9829,24.16,7.3818,24.1646,12.04c.0043,4.2006.0092,8.5444-1.5035,10.0581a1.86,1.86,0,0,1-1.3838.5459c-3.19,0-6.6923-5.5557-10.08-10.9288C7.4546,5.7773,3.9189.1694,0,.1694V1.4917c3.19,0,6.6919,5.5557,10.0791,10.9282,3.7432,5.9375,7.2793,11.5459,11.1982,11.5459a3.1605,3.1605,0,0,0,2.3189-.9336c1.9-1.9023,1.8955-6.3183,1.89-10.9941-.0044-4.1831-.0088-8.5088,1.49-10.0093a1.8272,1.8272,0,0,1,1.3608-.5371c3.19,0,6.6919,5.5557,10.0791,10.9282,3.7437,5.9375,7.2788,11.5459,11.1978,11.5459,4.2148,0,4.2148-6.0488,4.2148-11.8979,0-5.2,0-10.5762,2.8936-10.5762,3.1894,0,6.6923,5.5557,10.0791,10.9282C70.5459,18.3574,74.0811,23.9658,78,23.9658V22.6436C74.8105,22.6436,71.3076,17.0879,67.9209,11.7153Z" transform="translate(0 -0.1694)"></path></svg>