<svg xmlns="http://www.w3.org/2000/svg" id="b4c2e557-e39c-4a7b-bdc2-29354a3ba60e" data-name="Layer 1" width="26" height="64" viewBox="0 0 26 64"><path d="M13.3164,39.0518C7.7529,37.1973,2,35.2793,2,32s5.7529-5.1968,11.3164-7.0513C19.5518,22.87,26,20.7207,26,16S19.5518,9.13,13.3164,7.0513C7.7529,5.1968,2,3.2793,2,0H0C0,4.7207,6.4482,6.87,12.6836,8.9487,18.2471,10.8032,24,12.7207,24,16s-5.7529,5.1968-11.3164,7.0513C6.4482,25.13,0,27.2793,0,32s6.4482,6.87,12.6836,8.9482C18.2471,42.8027,24,44.7207,24,48s-5.7529,5.1973-11.3164,7.0518C6.4482,57.13,0,59.2793,0,64H2c0-3.2793,5.7529-5.1973,11.3164-7.0518C19.5518,54.87,26,52.7207,26,48S19.5518,41.13,13.3164,39.0518Z"></path></svg>