<svg xmlns="http://www.w3.org/2000/svg" xmlns:xlink="http://www.w3.org/1999/xlink" id="Layer_1" data-name="Layer 1" viewBox="0 0 124.15 46.99" height="50"><defs><style>.cls-1{fill:url(#linear-gradient);}</style><linearGradient id="linear-gradient" x1="-354.65" y1="-1693.21" x2="-356.88" y2="-1565.25" gradientTransform="matrix(0.19, 0, 0, -0.19, 83.89, -291.86)" gradientUnits="userSpaceOnUse"><stop offset="0" stop-color="#4e9b47"></stop><stop offset="0" stop-color="#4e9b47"></stop><stop offset="0.04" stop-color="#529d46"></stop><stop offset="1" stop-color="#a6ce39"></stop></linearGradient></defs><title>Nutrien Ag Solutions-01-FINAL</title><path d="M12,31.92a.64.64,0,0,0-.46-.17,1.64,1.64,0,0,0-.56.11.18.18,0,0,0-.09.08l-6.5,10.9a.19.19,0,0,0,0,.19.22.22,0,0,0,.17.09h1A.18.18,0,0,0,5.71,43l1.74-3h4.64l.44,2.9a.18.18,0,0,0,.18.16h1a.18.18,0,0,0,.19-.21L12.22,32.37a.75.75,0,0,0-.2-.45m-.14,6.94H8.14l3-5.12Z"></path><path d="M23.33,35.11H23.1a1.11,1.11,0,0,0-.69.24,1.18,1.18,0,0,0-.27.32,3.15,3.15,0,0,0-.31-.27,2.05,2.05,0,0,0-.63-.3,3,3,0,0,0-.95-.13,4.16,4.16,0,0,0-1.95.5,4.58,4.58,0,0,0-1.59,1.42,6.23,6.23,0,0,0-.94,2.24,4,4,0,0,0,.29,3,2.63,2.63,0,0,0,2.37,1.12A3.72,3.72,0,0,0,19.74,43a3.94,3.94,0,0,0,.83-.44,11.65,11.65,0,0,1-.39,1.34,2.64,2.64,0,0,1-2.82,1.74,2.5,2.5,0,0,1-1.52-.41,1.35,1.35,0,0,1-.42-.4.19.19,0,0,0-.12-.09.2.2,0,0,0-.15,0,1.91,1.91,0,0,0-.36.33.74.74,0,0,0-.21.35.7.7,0,0,0,.2.61,2.25,2.25,0,0,0,1,.54,5,5,0,0,0,1.45.19,4.11,4.11,0,0,0,4.1-2.35,10.34,10.34,0,0,0,.58-1.92l1.58-7.23a.17.17,0,0,0,0-.14.17.17,0,0,0-.11-.09m-1.52,1.81L20.92,41a.94.94,0,0,1-.34.46,2.85,2.85,0,0,1-.81.45,3,3,0,0,1-1,.17,1.53,1.53,0,0,1-1.49-.74,3.37,3.37,0,0,1-.1-2.26,4.26,4.26,0,0,1,1.1-2.23,2.64,2.64,0,0,1,1.94-.74,1.79,1.79,0,0,1,1.59.8"></path><path d="M36.06,32.12a3,3,0,0,0-.84-.36,5.31,5.31,0,0,0-1.31-.18,4.63,4.63,0,0,0-2.72.81,3.54,3.54,0,0,0-1.45,2.21,2.67,2.67,0,0,0,0,1.41,2.15,2.15,0,0,0,.81,1.05,6.51,6.51,0,0,0,1.78.82,4.61,4.61,0,0,1,1.25.58,1.09,1.09,0,0,1,.44.65,2.22,2.22,0,0,1,0,1,2.48,2.48,0,0,1-.93,1.52,3.09,3.09,0,0,1-1.89.55,3.59,3.59,0,0,1-1.46-.29,2.31,2.31,0,0,1-1-.76.2.2,0,0,0-.13-.09.27.27,0,0,0-.15,0,1.72,1.72,0,0,0-.58.79.55.55,0,0,0,.19.54,2.36,2.36,0,0,0,1.11.69,5.31,5.31,0,0,0,1.77.27,4.79,4.79,0,0,0,2.91-.89A4,4,0,0,0,35.42,40a3.07,3.07,0,0,0,0-1.48,2.26,2.26,0,0,0-.79-1.13,5.22,5.22,0,0,0-1.57-.77,5.63,5.63,0,0,1-1.37-.58,1.3,1.3,0,0,1-.54-.62,1.52,1.52,0,0,1,0-.83A2.19,2.19,0,0,1,32,33.28a2.89,2.89,0,0,1,1.74-.49,2.39,2.39,0,0,1,2,.88.18.18,0,0,0,.15.07h.18a.24.24,0,0,0,.14-.05,1.78,1.78,0,0,0,.47-.68.59.59,0,0,0-.18-.59l-.43-.3"></path><path d="M41.55,35a4.21,4.21,0,0,0-2,.52A4.74,4.74,0,0,0,37.89,37a6.05,6.05,0,0,0-1,2.2,4.1,4.1,0,0,0,.3,3.06,2.76,2.76,0,0,0,2.5,1.15,4.16,4.16,0,0,0,2.94-1.13,5.79,5.79,0,0,0,1.61-3.05A4.13,4.13,0,0,0,44,36.12,2.68,2.68,0,0,0,41.55,35M39.9,42.21a1.51,1.51,0,0,1-1.49-.75,3.35,3.35,0,0,1-.09-2.27,4.51,4.51,0,0,1,1.11-2.25,2.56,2.56,0,0,1,1.91-.8,1.55,1.55,0,0,1,1.5.71,3.36,3.36,0,0,1,.08,2.26,4.66,4.66,0,0,1-1.11,2.33,2.53,2.53,0,0,1-1.91.77"></path><path d="M48.11,31.11l-.2,0a.19.19,0,0,0-.16.14l-2.17,10a3.66,3.66,0,0,0-.12,1.11.88.88,0,0,0,.33.61,1.15,1.15,0,0,0,.71.19,2.94,2.94,0,0,0,.74-.09.18.18,0,0,0,.14-.14l.07-.34a.2.2,0,0,0,0-.15.22.22,0,0,0-.13-.08.77.77,0,0,1-.39-.1.31.31,0,0,1-.1-.23,2.07,2.07,0,0,1,.07-.6l2-9.3a.92.92,0,0,0-.11-.77.81.81,0,0,0-.67-.29"></path><path d="M56.24,35.1h-.07a.18.18,0,0,0-.18.14L54.74,41c0,.06-.08.2-.38.4a4,4,0,0,1-1,.45,3.49,3.49,0,0,1-1.12.2c-1.37,0-1.42-.66-1.44-.89a3.42,3.42,0,0,1,.1-1.17l.82-3.78a.93.93,0,0,0-.12-.83.88.88,0,0,0-.74-.28h-.06a.18.18,0,0,0-.18.14l-1,4.67a6.65,6.65,0,0,0-.19,1.5A1.62,1.62,0,0,0,50,42.78a2.52,2.52,0,0,0,1.67.49A5,5,0,0,0,53.38,43a4.51,4.51,0,0,0,1-.49l-.08.4a.16.16,0,0,0,0,.15.18.18,0,0,0,.15.07h.95a.18.18,0,0,0,.18-.14l1.47-6.76a1,1,0,0,0-.12-.84.87.87,0,0,0-.73-.28"></path><path d="M63.22,35.1H60.89l.29-1.3a.91.91,0,0,0-.12-.78.8.8,0,0,0-.67-.29l-.19,0a.18.18,0,0,0-.14.15l-1.69,7.73a4.63,4.63,0,0,0-.13,1.43c.07.59.45,1.31,1.82,1.31a3.13,3.13,0,0,0,.94-.15,3.07,3.07,0,0,0,.85-.42c.3-.2.45-.37.48-.53s0-.4-.29-.71a.17.17,0,0,0-.13-.07.15.15,0,0,0-.14,0,2.91,2.91,0,0,1-.43.33,1.88,1.88,0,0,1-1,.34.71.71,0,0,1-.6-.22,1.37,1.37,0,0,1-.08-1.11l1-4.66h2.4a.18.18,0,0,0,.18-.15l.17-.75a.23.23,0,0,0,0-.16.17.17,0,0,0-.14-.06"></path><path d="M66.51,32.32a1,1,0,0,0-.67.27,1.18,1.18,0,0,0-.38.64.77.77,0,0,0,.12.67.71.71,0,0,0,.61.3,1,1,0,0,0,.67-.26,1.28,1.28,0,0,0,.38-.64.88.88,0,0,0-.12-.68.74.74,0,0,0-.61-.3"></path><path d="M65.53,35.1h0a.18.18,0,0,0-.18.14l-1.32,6a3.8,3.8,0,0,0-.12,1.13.81.81,0,0,0,.34.6,1.2,1.2,0,0,0,.69.18,3.5,3.5,0,0,0,.74-.08.2.2,0,0,0,.14-.14l.07-.35a.21.21,0,0,0,0-.15.17.17,0,0,0-.13-.07.85.85,0,0,1-.4-.11.39.39,0,0,1-.09-.25,2.83,2.83,0,0,1,.08-.63l1.14-5.24a.91.91,0,0,0-.11-.8,1,1,0,0,0-.77-.28"></path><path d="M72.38,35a4.21,4.21,0,0,0-2,.52A4.74,4.74,0,0,0,68.72,37a6.05,6.05,0,0,0-1,2.2,4.05,4.05,0,0,0,.3,3.06,2.75,2.75,0,0,0,2.49,1.15,4.17,4.17,0,0,0,3-1.13,5.85,5.85,0,0,0,1.6-3.05,4.08,4.08,0,0,0-.28-3.07A2.65,2.65,0,0,0,72.38,35m1.37,4.15a4.66,4.66,0,0,1-1.11,2.33,2.51,2.51,0,0,1-1.9.77,1.53,1.53,0,0,1-1.5-.75,3.35,3.35,0,0,1-.09-2.27,4.51,4.51,0,0,1,1.11-2.25,2.55,2.55,0,0,1,1.91-.8,1.55,1.55,0,0,1,1.5.71,3.36,3.36,0,0,1,.08,2.26"></path><path d="M83.44,35.45A2.62,2.62,0,0,0,81.77,35a5.19,5.19,0,0,0-1.7.29,4.66,4.66,0,0,0-1.07.54.76.76,0,0,0-.16-.41.87.87,0,0,0-.73-.28H78a.18.18,0,0,0-.18.14L76.19,42.9a.17.17,0,0,0,0,.15.17.17,0,0,0,.14.07h1a.19.19,0,0,0,.18-.14l1.22-5.64A.63.63,0,0,1,78.9,37a2.94,2.94,0,0,1,1-.6,3.74,3.74,0,0,1,1.27-.24c1.37,0,1.42.66,1.44.89a3.9,3.9,0,0,1-.12,1.16l-1,4.66a.17.17,0,0,0,0,.15.16.16,0,0,0,.14.07h1a.2.2,0,0,0,.19-.14l1-4.66A6.51,6.51,0,0,0,84,36.83a1.66,1.66,0,0,0-.6-1.38"></path><path d="M91.31,35.69a2.36,2.36,0,0,0-.89-.54A4,4,0,0,0,89.17,35a3.81,3.81,0,0,0-1.42.27A3.3,3.3,0,0,0,86.6,36,2.46,2.46,0,0,0,86,37.16a2.09,2.09,0,0,0,0,1,1.49,1.49,0,0,0,.54.76,5,5,0,0,0,1.37.58,4.21,4.21,0,0,1,1.13.41.81.81,0,0,1,.35.42,1,1,0,0,1,0,.57,1.5,1.5,0,0,1-.64,1,2.24,2.24,0,0,1-1.28.35,2.7,2.7,0,0,1-1.1-.22,2.33,2.33,0,0,1-.82-.53.19.19,0,0,0-.14-.05.16.16,0,0,0-.13.06,4.61,4.61,0,0,0-.35.39.87.87,0,0,0-.16.32.55.55,0,0,0,.23.56,2.85,2.85,0,0,0,1,.43,5.53,5.53,0,0,0,1.37.17,3.68,3.68,0,0,0,2.16-.65A2.75,2.75,0,0,0,90.68,41a2,2,0,0,0,0-1.08,1.49,1.49,0,0,0-.47-.72,2.53,2.53,0,0,0-.72-.42,7.64,7.64,0,0,0-.8-.29A4.74,4.74,0,0,1,87.63,38a.82.82,0,0,1-.34-.36.71.71,0,0,1,0-.44,1.19,1.19,0,0,1,.58-.81A2.21,2.21,0,0,1,89,36.12a1.7,1.7,0,0,1,1.67.89.21.21,0,0,0,.17.1H91a.19.19,0,0,0,.15-.08l.25-.34a1,1,0,0,0,.16-.35.67.67,0,0,0-.25-.65"></path><path d="M28.18,1.34l-4.5,17.33c.91,2.31,1.78,4.23,3.17,5.5l4.95-19,0-.15a3.25,3.25,0,0,0,.08-.69c0-1.8-1.63-3-3.74-3"></path><path d="M11.33,12,8,24.71h4.61l1.9-7.33C13.67,15,12.8,13.08,11.33,12"></path><path d="M45.65,24.7H42.46c-.59,0-.92-.16-1-.47a3,3,0,0,1,.13-1.38,8.23,8.23,0,0,1-2.22,1.48,8,8,0,0,1-3.51.67,4.67,4.67,0,0,1-3.43-1,3.31,3.31,0,0,1-.87-2.58,10.59,10.59,0,0,1,.22-1.75c.13-.63.27-1.24.43-1.85l2.52-9.67a4.3,4.3,0,0,1,.59-.09C35.67,8,36,8,36.4,8a5.7,5.7,0,0,1,1.1.11,2.22,2.22,0,0,1,.91.4,1.46,1.46,0,0,1,.52.84,3,3,0,0,1-.08,1.42l-1.79,6.84c-.13.54-.24,1-.32,1.45a2.82,2.82,0,0,0,0,1.12,1.09,1.09,0,0,0,.55.73,2.63,2.63,0,0,0,1.35.27A5.16,5.16,0,0,0,41,20.65a2.21,2.21,0,0,0,1.28-1.34l2.9-11.14a3.54,3.54,0,0,1,.59-.08A9,9,0,0,1,46.83,8a5,5,0,0,1,1.1.12,2.14,2.14,0,0,1,.9.46,1.72,1.72,0,0,1,.5.91,3.27,3.27,0,0,1-.1,1.45Z"></path><path d="M50.49,22.2a5.66,5.66,0,0,1,.07-1.47,14.62,14.62,0,0,1,.33-1.54L55.11,3l.54-.06a4.51,4.51,0,0,1,.54-.05l.57,0A5.6,5.6,0,0,1,57.85,3a2,2,0,0,1,.91.42,1.64,1.64,0,0,1,.52.85,3,3,0,0,1-.09,1.42L58.55,8.1h4.92l-.93,3.57-4.92,0-1.94,7.47c-.43,1.64,0,2.45,1.36,2.45a3.33,3.33,0,0,0,1-.15,9.17,9.17,0,0,0,.89-.35,4,4,0,0,0,.72-.4l.44-.31a9.25,9.25,0,0,1,.46,1.33,2.2,2.2,0,0,1,0,1.05,1.86,1.86,0,0,1-.61.89,5,5,0,0,1-1.24.79,8,8,0,0,1-1.77.59,9.73,9.73,0,0,1-2.13.23,4.93,4.93,0,0,1-3.19-.85,3.2,3.2,0,0,1-1.11-2.2"></path><path d="M70.75,9.88a9.37,9.37,0,0,1,.76-.7,7.33,7.33,0,0,1,1-.69A6,6,0,0,1,73.8,8a4.51,4.51,0,0,1,1.37-.21,5.48,5.48,0,0,1,.88.07,2.58,2.58,0,0,1,.81.27,1.16,1.16,0,0,1,.51.52,1.13,1.13,0,0,1,0,.82,6.44,6.44,0,0,1-.84,1.74,16.82,16.82,0,0,1-1.22,1.71,3.81,3.81,0,0,0-1-.75A3.11,3.11,0,0,0,73,11.88a3.31,3.31,0,0,0-2,.62A2.66,2.66,0,0,0,69.89,14l-2.8,10.75H62.32l4.3-16.51.43-.07.51-.05.67,0a3.6,3.6,0,0,1,1.84.44,1.43,1.43,0,0,1,.68,1.35"></path><path d="M86.23,2.69A3.26,3.26,0,0,1,85,4.5a3.26,3.26,0,0,1-2,.7,2,2,0,0,1-1.65-.71,2,2,0,0,1-.26-1.81A3.33,3.33,0,0,1,82.31.84a3.27,3.27,0,0,1,2-.71A2,2,0,0,1,86,.85a2,2,0,0,1,.28,1.84M80.38,25a2.49,2.49,0,0,1-.66.1c-.33,0-.68,0-1.06,0a3.26,3.26,0,0,1-2.08-.58c-.47-.38-.56-1.16-.26-2.32L80,8.26a3.54,3.54,0,0,1,.59-.08,9,9,0,0,1,1.06,0,5.7,5.7,0,0,1,1.1.1,2.16,2.16,0,0,1,.91.4,1.46,1.46,0,0,1,.52.85,2.72,2.72,0,0,1-.09,1.41Z"></path><path d="M96.7,14.76A4.69,4.69,0,0,0,96.76,12c-.25-.7-.94-1-2.06-1a3.68,3.68,0,0,0-2.58,1,5.49,5.49,0,0,0-1.57,2.77Zm-3.43,7.09a6.11,6.11,0,0,0,1.6-.19,8.19,8.19,0,0,0,1.32-.47,7.29,7.29,0,0,0,1.07-.61l.86-.61a7.6,7.6,0,0,1,.53,1.35,2.61,2.61,0,0,1,.1,1.35,2.48,2.48,0,0,1-1.24,1.39,8.66,8.66,0,0,1-2.34,1,12.23,12.23,0,0,1-3.28.4A11.9,11.9,0,0,1,88.75,25a5.22,5.22,0,0,1-2.46-1.47A5.44,5.44,0,0,1,85,20.69a10.64,10.64,0,0,1,.39-4.45,11.84,11.84,0,0,1,1.67-3.79,11.07,11.07,0,0,1,2.51-2.63,10,10,0,0,1,3-1.53,10.5,10.5,0,0,1,3.08-.48,7.06,7.06,0,0,1,3.18.62,4.25,4.25,0,0,1,1.8,1.65,5,5,0,0,1,.63,2.36,9.94,9.94,0,0,1-.34,2.79c0,.14-.08.3-.13.49s-.1.38-.17.59-.13.41-.19.61-.13.36-.18.47l-10.32,0a4.61,4.61,0,0,0,.36,3.19q.72,1.29,3,1.29"></path><path d="M106.42,24.77l-4.81,0,4.27-16.42.44-.07a3.67,3.67,0,0,1,.51,0c.19,0,.41,0,.67,0a3.71,3.71,0,0,1,1.84.41A1.37,1.37,0,0,1,110,10a8.32,8.32,0,0,1,2.21-1.48,8.13,8.13,0,0,1,3.52-.67,4.72,4.72,0,0,1,3.43,1,3.43,3.43,0,0,1,.87,2.59,10.67,10.67,0,0,1-.23,1.75c-.13.63-.27,1.24-.43,1.85l-2.53,9.72h-4.77l2.47-9.52c.14-.51.24-1,.32-1.44a2.89,2.89,0,0,0,0-1.13,1.11,1.11,0,0,0-.55-.74,2.75,2.75,0,0,0-1.35-.26,5.29,5.29,0,0,0-2.37.53,2.23,2.23,0,0,0-1.28,1.35Z"></path><path id="SVGID" class="cls-1" d="M7.93,1.36a15,15,0,0,1,4.59,4.93A17.13,17.13,0,0,1,14,10.55c3.26.06,4.63,1.54,6.51,4.92.41.74.85,1.5,1.27,2.22h0c-.59-.91-1.27-1.93-1.87-2.74-1.35-1.84-3.11-3.57-5.78-3.63h-1c-.25,0-.57,0-1.54,0,2.9,1.61,3.13,5.6,5,8.2,1.68,2.38,3.17,4.36,7.45,5.19a14.77,14.77,0,0,0,2.69.3,11.58,11.58,0,0,1-2.36-3.13,28.82,28.82,0,0,1-2-4.89c-.82-2.58-1.63-5.76-2-7.43C19.39,6.12,18,3,14,1.77a21.88,21.88,0,0,0-4.93-.42c-.67,0-1.13,0-1.13,0"></path><path d="M95.83,35.77a1.31,1.31,0,0,1-1.34,1.32,1.32,1.32,0,1,1,0-2.63A1.31,1.31,0,0,1,95.83,35.77Zm-2.36,0a1,1,0,0,0,1,1,1,1,0,0,0,1-1,1,1,0,1,0-2,0Zm.81.68H94V35.14a3,3,0,0,1,.5,0,.74.74,0,0,1,.45.1.33.33,0,0,1-.14.59v0a.38.38,0,0,1,.24.32.76.76,0,0,0,.1.32H94.8a1.13,1.13,0,0,1-.11-.32c0-.14-.1-.21-.27-.21h-.14v.53Zm0-.74h.14c.17,0,.3-.06.3-.19s-.08-.2-.27-.2h-.17Z"></path></svg>